<?xml version="1.0" encoding="utf-8"?>
<svg viewBox="4856.17 3470.08 1631.5 1631.5" xmlns="http://www.w3.org/2000/svg">
  <path d="m6487.67,4285.83c0,450.53-365.22,815.75-815.75,815.75s-815.75-365.22-815.75-815.75,365.22-815.75,815.75-815.75,815.75,365.22,815.75,815.75zm-920.13-222.42-.01,334.17c-3.07,39.27-35.42,70.31-75.23,71.31l-241.47.01v204.53l356.7-.05c88.89-14.22,159.37-86.92,169.81-178.09l.09-326.03c3.68-38.07,34.9-68.08,73.5-69.84h246.63l.01-213.33-359.86.06c-88.89,14.22-159.73,86.09-170.17,177.26z" fill="#e31e24"/>
</svg>