<?xml version="1.0" encoding="utf-8"?>
<svg viewBox="4856.17 3470.08 10673.67 1631.5" xmlns="http://www.w3.org/2000/svg">
  <path d="m6487.67,4285.83c0,450.53-365.22,815.75-815.75,815.75s-815.75-365.22-815.75-815.75,365.22-815.75,815.75-815.75,815.75,365.22,815.75,815.75zm-920.13-222.42-.01,334.17c-3.07,39.27-35.42,70.31-75.23,71.31l-241.47.01v204.53l356.7-.05c88.89-14.22,159.37-86.92,169.81-178.09l.09-326.03c3.68-38.07,34.9-68.08,73.5-69.84h246.63l.01-213.33-359.86.06c-88.89,14.22-159.73,86.09-170.17,177.26z" fill="#e31e24"/>
  <path d="M 7008.561557617188 4576.83984375 L 7008.561557617188 4138.330107421875 L 6851.9509375 4138.330107421875 L 6851.9509375 4049.044052734375 L 7271.379379882813 4049.044052734375 L 7271.379379882813 4138.330107421875 L 7115.1287841796875 4138.330107421875 L 7115.1287841796875 4576.83984375 Z M 7262.569853515625 4380.266513671875 Q 7262.569853515625 4329.863095703125 7287.4115380859375 4282.699897460938 Q 7312.25322265625 4235.53669921875 7357.796311035157 4210.695014648438 Q 7403.339399414062 4185.853330078125 7459.503208007813 4185.853330078125 Q 7546.269091796875 4185.853330078125 7601.7128515625 4242.1971508789065 Q 7657.156611328125 4298.540971679688 7657.156611328125 4384.586806640625 Q 7657.156611328125 4471.352690429688 7601.172814941407 4528.416560058594 Q 7545.189018554687 4585.4804296875 7460.223256835938 4585.4804296875 Q 7407.659692382813 4585.4804296875 7359.956457519531 4561.718818359375 Q 7312.25322265625 4537.95720703125 7287.4115380859375 4492.054094238281 Q 7262.569853515625 4446.150981445313 7262.569853515625 4380.266513671875 Z M 7366.256884765625 4385.666879882812 Q 7366.256884765625 4442.550737304688 7393.258715820312 4472.792788085938 Q 7420.260546875 4503.034838867187 7459.863232421875 4503.034838867187 Q 7499.46591796875 4503.034838867187 7526.287736816406 4472.792788085938 Q 7553.109555664062 4442.550737304688 7553.109555664062 4384.946831054687 Q 7553.109555664062 4328.783022460938 7526.287736816406 4298.540971679688 Q 7499.46591796875 4268.298920898437 7459.863232421875 4268.298920898437 Q 7420.260546875 4268.298920898437 7393.258715820312 4298.540971679688 Q 7366.256884765625 4328.783022460938 7366.256884765625 4385.666879882812 Z M 7726.482846679687 4194.493916015625 L 7820.8092431640625 4194.493916015625 L 7820.8092431640625 4250.657724609375 Q 7839.17048828125 4221.855771484375 7870.492612304687 4203.85455078125 Q 7901.814736328125 4185.853330078125 7939.97732421875 4185.853330078125 Q 8006.581840820312 4185.853330078125 8053.024990234375 4238.056870117188 Q 8099.4681396484375 4290.26041015625 8099.4681396484375 4383.506733398437 Q 8099.4681396484375 4479.273227539063 8052.664965820312 4532.376828613281 Q 8005.861791992187 4585.4804296875 7939.257275390625 4585.4804296875 Q 7907.575126953125 4585.4804296875 7881.8333813476565 4572.879575195312 Q 7856.0916357421875 4560.278720703125 7827.64970703125 4529.676645507812 L 7827.64970703125 4722.28970703125 L 7726.482846679687 4722.28970703125 Z M 7826.569633789062 4379.1864404296875 Q 7826.569633789062 4443.630810546875 7852.1313671875 4474.412897949219 Q 7877.693100585938 4505.1949853515625 7914.415590820313 4505.1949853515625 Q 7949.697983398438 4505.1949853515625 7973.0995703125 4476.933068847657 Q 7996.501157226562 4448.67115234375 7996.501157226562 4384.226782226562 Q 7996.501157226562 4324.102705078125 7972.379521484375 4294.940727539062 Q 7948.257885742188 4265.77875 7912.61546875 4265.77875 Q 7875.532954101563 4265.77875 7851.051293945313 4294.400690917969 Q 7826.569633789062 4323.022631835937 7826.569633789062 4379.1864404296875 Z M 8168.79388671875 4194.493916015625 L 8426.931391601562 4194.493916015625 L 8426.931391601562 4276.219458007812 L 8269.960747070312 4276.219458007812 L 8269.960747070312 4576.83984375 L 8168.79388671875 4576.83984375 Z M 8439.728056640624 4380.266513671875 Q 8439.728056640624 4329.863095703125 8464.569741210937 4282.699897460938 Q 8489.41142578125 4235.53669921875 8534.954514160156 4210.695014648438 Q 8580.497602539062 4185.853330078125 8636.661411132813 4185.853330078125 Q 8723.427294921876 4185.853330078125 8778.8710546875 4242.1971508789065 Q 8834.314814453124 4298.540971679688 8834.314814453124 4384.586806640625 Q 8834.314814453124 4471.352690429688 8778.331018066407 4528.416560058594 Q 8722.347221679687 4585.4804296875 8637.381459960938 4585.4804296875 Q 8584.817895507813 4585.4804296875 8537.11466064453 4561.718818359375 Q 8489.41142578125 4537.95720703125 8464.569741210937 4492.054094238281 Q 8439.728056640624 4446.150981445313 8439.728056640624 4380.266513671875 Z M 8543.415087890626 4385.666879882812 Q 8543.415087890626 4442.550737304688 8570.416918945313 4472.792788085938 Q 8597.41875 4503.034838867187 8637.021435546874 4503.034838867187 Q 8676.62412109375 4503.034838867187 8703.445939941406 4472.792788085938 Q 8730.267758789063 4442.550737304688 8730.267758789063 4384.946831054687 Q 8730.267758789063 4328.783022460938 8703.445939941406 4298.540971679688 Q 8676.62412109375 4268.298920898437 8637.021435546874 4268.298920898437 Q 8597.41875 4268.298920898437 8570.416918945313 4298.540971679688 Q 8543.415087890626 4328.783022460938 8543.415087890626 4385.666879882812 Z M 8907.601318359375 4194.493916015625 L 9129.016333007812 4194.493916015625 Q 9197.060947265625 4194.493916015625 9230.9032421875 4219.335600585938 Q 9264.745537109375 4244.17728515625 9264.745537109375 4294.220678710937 Q 9264.745537109375 4326.2628515625 9246.204279785155 4350.024462890625 Q 9227.663022460938 4373.78607421875 9199.581118164062 4381.706611328125 Q 9239.183803710937 4391.427270507813 9258.625122070312 4418.069077148438 Q 9278.066440429688 4444.710883789063 9278.066440429688 4476.393032226562 Q 9278.066440429688 4521.036059570312 9245.30421875 4548.937951660157 Q 9212.541997070313 4576.83984375 9148.457651367187 4576.83984375 L 8907.601318359375 4576.83984375 Z M 9009.488227539063 4353.264682617188 L 9074.652646484376 4353.264682617188 Q 9121.815844726563 4353.264682617188 9142.87727294922 4341.383876953125 Q 9163.938701171875 4329.503071289062 9163.938701171875 4303.941337890625 Q 9163.938701171875 4279.8197021484375 9144.31737060547 4269.559006347657 Q 9124.696040039062 4259.298310546875 9074.652646484376 4259.298310546875 L 9009.488227539063 4259.298310546875 Z M 9009.488227539063 4512.03544921875 L 9089.413647460937 4512.03544921875 Q 9132.616577148438 4512.03544921875 9152.417919921874 4501.594741210937 Q 9172.219262695313 4491.154033203125 9172.219262695313 4464.152202148438 Q 9172.219262695313 4436.070297851563 9149.537724609376 4425.4495776367185 Q 9126.856186523437 4414.828857421875 9061.331743164063 4414.828857421875 L 9009.488227539063 4414.828857421875 Z M 9353.506918945313 4194.493916015625 L 9454.673779296874 4194.493916015625 L 9454.673779296874 4353.264682617188 L 9556.2006640625 4353.264682617188 Q 9615.964716796874 4353.264682617188 9647.466853027343 4361.725256347656 Q 9678.968989257812 4370.185830078125 9700.750466308593 4398.627758789063 Q 9722.531943359376 4427.0696875 9722.531943359376 4465.592299804687 Q 9722.531943359376 4521.036059570312 9684.36935546875 4548.937951660157 Q 9646.206767578125 4576.83984375 9569.881591796875 4576.83984375 L 9353.506918945313 4576.83984375 Z M 9454.673779296874 4512.755498046875 L 9548.640151367188 4512.755498046875 Q 9585.362641601563 4512.755498046875 9601.923764648438 4501.234716796875 Q 9618.484887695313 4489.713935546875 9618.484887695313 4463.792177734375 Q 9618.484887695313 4436.070297851563 9597.063435058593 4425.809602050781 Q 9575.641982421876 4415.54890625 9520.19822265625 4415.54890625 L 9454.673779296874 4415.54890625 Z M 9780.135849609374 4194.493916015625 L 9881.302709960937 4194.493916015625 L 9881.302709960937 4576.83984375 L 9780.135849609374 4576.83984375 Z M 9972.94736328125 4194.493916015625 L 10070.153955078125 4194.493916015625 L 10070.153955078125 4434.630200195313 L 10225.684501953125 4194.493916015625 L 10325.051240234376 4194.493916015625 L 10325.051240234376 4576.83984375 L 10227.8446484375 4576.83984375 L 10227.8446484375 4332.383266601562 L 10070.153955078125 4576.83984375 L 9972.94736328125 4576.83984375 Z M 10215.243793945312 4039.3233935546873 L 10264.567138671875 4039.3233935546873 Q 10260.246845703125 4088.2867138671872 10230.184807128906 4116.1886059570315 Q 10200.122768554687 4144.090498046875 10152.239521484375 4144.090498046875 Q 10104.356274414062 4144.090498046875 10074.294235839843 4116.1886059570315 Q 10044.232197265625 4088.2867138671872 10039.911904296874 4039.3233935546873 L 10089.235249023437 4039.3233935546873 Q 10091.755419921876 4064.885126953125 10107.236469726562 4078.0260180664063 Q 10122.71751953125 4091.1669091796875 10152.239521484375 4091.1669091796875 Q 10181.7615234375 4091.1669091796875 10197.242573242187 4078.0260180664063 Q 10212.723623046875 4064.885126953125 10215.243793945312 4039.3233935546873 Z M 10935.687133789062 4576.83984375 L 10646.227504882812 4576.83984375 L 10646.227504882812 4677.6466796875 L 10564.141938476563 4677.6466796875 L 10564.141938476563 4494.034228515625 L 10605.54474609375 4494.034228515625 Q 10631.46650390625 4465.232275390625 10648.387651367188 4404.028125 Q 10665.308798828126 4342.823974609375 10668.549018554688 4194.493916015625 L 10977.08994140625 4194.493916015625 L 10977.08994140625 4494.034228515625 L 11018.132724609375 4494.034228515625 L 11018.132724609375 4677.6466796875 L 10935.687133789062 4677.6466796875 Z M 10877.003154296875 4494.034228515625 L 10877.363178710937 4277.659555664062 L 10754.954877929687 4277.659555664062 Q 10748.834462890625 4436.070297851563 10704.551459960938 4494.034228515625 Z M 11057.216337890624 4380.266513671875 Q 11057.216337890624 4329.863095703125 11082.058022460937 4282.699897460938 Q 11106.89970703125 4235.53669921875 11152.442795410156 4210.695014648438 Q 11197.985883789062 4185.853330078125 11254.149692382813 4185.853330078125 Q 11340.915576171876 4185.853330078125 11396.3593359375 4242.1971508789065 Q 11451.803095703124 4298.540971679688 11451.803095703124 4384.586806640625 Q 11451.803095703124 4471.352690429688 11395.819299316407 4528.416560058594 Q 11339.835502929687 4585.4804296875 11254.869741210938 4585.4804296875 Q 11202.306176757813 4585.4804296875 11154.60294189453 4561.718818359375 Q 11106.89970703125 4537.95720703125 11082.058022460937 4492.054094238281 Q 11057.216337890624 4446.150981445313 11057.216337890624 4380.266513671875 Z M 11160.903369140626 4385.666879882812 Q 11160.903369140626 4442.550737304688 11187.905200195313 4472.792788085938 Q 11214.90703125 4503.034838867187 11254.509716796874 4503.034838867187 Q 11294.11240234375 4503.034838867187 11320.934221191406 4472.792788085938 Q 11347.756040039063 4442.550737304688 11347.756040039063 4384.946831054687 Q 11347.756040039063 4328.783022460938 11320.934221191406 4298.540971679688 Q 11294.11240234375 4268.298920898437 11254.509716796874 4268.298920898437 Q 11214.90703125 4268.298920898437 11187.905200195313 4298.540971679688 Q 11160.903369140626 4328.783022460938 11160.903369140626 4385.666879882812 Z M 11517.162182617187 4194.493916015625 L 11642.450678710937 4194.493916015625 L 11737.497124023437 4460.911982421875 L 11833.263618164063 4194.493916015625 L 11958.19208984375 4194.493916015625 L 11958.19208984375 4576.83984375 L 11872.146254882813 4576.83984375 L 11872.146254882813 4325.1827783203125 L 11778.899931640624 4576.83984375 L 11692.494072265625 4576.83984375 L 11603.568041992188 4325.1827783203125 L 11603.568041992188 4576.83984375 L 11517.162182617187 4576.83984375 Z M 12425.543891601563 4222.935844726562 L 12331.937543945312 4385.30685546875 L 12425.543891601563 4551.638134765625 L 12345.97849609375 4551.638134765625 L 12232.21078125 4385.30685546875 L 12345.97849609375 4222.935844726562 Z M 12566.673461914062 4222.935844726562 L 12473.427138671876 4385.30685546875 L 12566.673461914062 4551.638134765625 L 12487.10806640625 4551.638134765625 L 12373.3403515625 4385.30685546875 L 12487.10806640625 4222.935844726562 Z M 12992.058452148438 4382.786684570313 L 13095.385458984376 4415.54890625 Q 13071.62384765625 4501.954765625 13016.360100097656 4543.897609863281 Q 12961.096352539062 4585.8404541015625 12876.130590820312 4585.8404541015625 Q 12771.003461914062 4585.8404541015625 12703.318872070313 4514.015583496093 Q 12635.634282226563 4442.190712890625 12635.634282226563 4317.622265625 Q 12635.634282226563 4185.853330078125 12703.678896484374 4112.948386230469 Q 12771.723510742188 4040.0434423828124 12882.611030273438 4040.0434423828124 Q 12979.45759765625 4040.0434423828124 13039.94169921875 4097.28732421875 Q 13075.944140625 4131.129619140625 13093.945361328126 4194.493916015625 L 12988.458208007813 4219.695625 Q 12979.097573242187 4178.652841796875 12949.395559082031 4154.89123046875 Q 12919.693544921874 4131.129619140625 12877.2106640625 4131.129619140625 Q 12818.526684570312 4131.129619140625 12781.98420654297 4173.252475585938 Q 12745.441728515625 4215.37533203125 12745.441728515625 4309.701728515625 Q 12745.441728515625 4409.788515625 12781.444169921875 4452.271396484375 Q 12817.446611328125 4494.75427734375 12875.050517578125 4494.75427734375 Q 12917.5333984375 4494.75427734375 12948.135473632812 4467.752446289062 Q 12978.737548828125 4440.750615234375 12992.058452148438 4382.786684570313 Z M 13139.864438476563 4316.18216796875 Q 13139.864438476563 4235.53669921875 13163.98607421875 4180.81298828125 Q 13181.987294921875 4140.49025390625 13213.12940673828 4108.4480810546875 Q 13244.271518554688 4076.405908203125 13281.354033203124 4060.924858398437 Q 13330.677377929687 4040.0434423828124 13395.121748046875 4040.0434423828124 Q 13511.769658203126 4040.0434423828124 13581.794406738281 4112.408349609375 Q 13651.819155273437 4184.773256835938 13651.819155273437 4313.661997070312 Q 13651.819155273437 4441.4706640625 13582.334443359376 4513.655559082032 Q 13512.849731445312 4585.8404541015625 13396.561845703125 4585.8404541015625 Q 13278.833862304688 4585.8404541015625 13209.349150390624 4514.015583496093 Q 13139.864438476563 4442.190712890625 13139.864438476563 4316.18216796875 Z M 13249.671884765625 4312.581923828125 Q 13249.671884765625 4402.228002929687 13291.074692382812 4448.491140136719 Q 13332.4775 4494.75427734375 13396.201821289062 4494.75427734375 Q 13459.926142578124 4494.75427734375 13500.788913574219 4448.8511645507815 Q 13541.651684570312 4402.948051757812 13541.651684570312 4311.141826171875 Q 13541.651684570312 4220.415673828125 13501.868986816406 4175.772646484375 Q 13462.0862890625 4131.129619140625 13396.201821289062 4131.129619140625 Q 13330.317353515626 4131.129619140625 13289.994619140625 4176.312683105469 Q 13249.671884765625 4221.495747070312 13249.671884765625 4312.581923828125 Z M 13727.981528320313 4576.83984375 L 13727.981528320313 4049.044052734375 L 13898.993125 4049.044052734375 Q 13996.199716796875 4049.044052734375 14025.72171875 4056.96458984375 Q 14071.084794921875 4068.8453955078126 14101.686870117188 4108.628093261719 Q 14132.2889453125 4148.410791015625 14132.2889453125 4211.415063476563 Q 14132.2889453125 4260.018359375 14114.647749023437 4293.14060546875 Q 14097.006552734376 4326.2628515625 14069.824709472656 4345.164133300781 Q 14042.642866210937 4364.065415039063 14014.560961914063 4370.185830078125 Q 13976.398374023438 4377.746342773437 13904.033466796875 4377.746342773437 L 13834.548754882813 4377.746342773437 L 13834.548754882813 4576.83984375 Z M 13834.548754882813 4138.330107421875 L 13834.548754882813 4288.100263671875 L 13892.872709960937 4288.100263671875 Q 13955.876982421874 4288.100263671875 13977.118422851563 4279.8197021484375 Q 13998.35986328125 4271.539140625 14010.420681152344 4253.897944335938 Q 14022.481499023437 4236.256748046875 14022.481499023437 4212.855161132812 Q 14022.481499023437 4184.053208007813 14005.5603515625 4165.331938476563 Q 13988.639204101562 4146.610668945313 13962.717446289062 4141.9303515625 Q 13943.63615234375 4138.330107421875 13886.03224609375 4138.330107421875 Z M 14623.919155273437 4576.83984375 L 14507.991293945313 4576.83984375 L 14461.908168945312 4456.951713867187 L 14250.933862304688 4456.951713867187 L 14207.370908203126 4576.83984375 L 14094.3232421875 4576.83984375 L 14299.897182617187 4049.044052734375 L 14412.58482421875 4049.044052734375 Z M 14427.705849609374 4368.02568359375 L 14354.98091796875 4172.17240234375 L 14283.696083984374 4368.02568359375 Z M 14992.787944335938 4382.786684570313 L 15096.114951171876 4415.54890625 Q 15072.35333984375 4501.954765625 15017.089592285156 4543.897609863281 Q 14961.825844726562 4585.8404541015625 14876.860083007812 4585.8404541015625 Q 14771.732954101562 4585.8404541015625 14704.048364257813 4514.015583496093 Q 14636.363774414063 4442.190712890625 14636.363774414063 4317.622265625 Q 14636.363774414063 4185.853330078125 14704.408388671874 4112.948386230469 Q 14772.453002929688 4040.0434423828124 14883.340522460938 4040.0434423828124 Q 14980.18708984375 4040.0434423828124 15040.67119140625 4097.28732421875 Q 15076.6736328125 4131.129619140625 15094.674853515626 4194.493916015625 L 14989.187700195313 4219.695625 Q 14979.827065429687 4178.652841796875 14950.125051269531 4154.89123046875 Q 14920.423037109374 4131.129619140625 14877.94015625 4131.129619140625 Q 14819.256176757812 4131.129619140625 14782.71369873047 4173.252475585938 Q 14746.171220703125 4215.37533203125 14746.171220703125 4309.701728515625 Q 14746.171220703125 4409.788515625 14782.173662109375 4452.271396484375 Q 14818.176103515625 4494.75427734375 14875.780009765625 4494.75427734375 Q 14918.262890625 4494.75427734375 14948.864965820312 4467.752446289062 Q 14979.467041015625 4440.750615234375 14992.787944335938 4382.786684570313 Z M 15306.202314453125 4551.638134765625 L 15399.808662109375 4388.907099609375 L 15306.202314453125 4222.935844726562 L 15385.767709960937 4222.935844726562 L 15499.535424804688 4388.907099609375 L 15385.767709960937 4551.638134765625 Z M 15165.072744140625 4551.638134765625 L 15258.679091796876 4388.907099609375 L 15165.072744140625 4222.935844726562 L 15244.638139648438 4222.935844726562 L 15358.405854492188 4388.907099609375 L 15244.638139648438 4551.638134765625 Z" transform="matrix(1, 0, 0, 1, 0, 0)" style="fill: rgb(43, 42, 41); white-space: pre;"/>
</svg>